# xmcd CD database file
#
# Track frame offsets:
#	150
#	11817
#	24621
#	43519
#	57098
#	67407
#	77239
#	91436
#	103696
#	117627
#	131784
#	145796
#	161243
#	172146
#	183720
#	197309
#	211983
#	225364
#	238139
#	253495
#
# Disc length: 3546 seconds
#
# Revision: 1
# Processed by: cddbd v1.5.2PL0 Copyright (c) Steve Scherf et al.
# Submitted via: CDex 1.51
#
DISCID=300dd814
DTITLE=Heart of Texas - 25th Anniversary Collection Vol. 1
DYEAR=2014
DGENRE=Country
TTITLE0=Neon Nightmare
TTITLE1=Play Me The Truth
TTITLE2=The Songs Of The Cherokee Cowboy
TTITLE3=Who'll Be The First
TTITLE4=My Reason For Living
TTITLE5=Heaven Help The Working Girl
TTITLE6=I Gotta Have My Baby Back
TTITLE7=It's A Long Way From Heaven (To The World You're Living In)
TTITLE8=Perfect Stranger
TTITLE9=Most Of All
TTITLE10=Texas Dance Hall Girl
TTITLE11=Bandera
TTITLE12=From Heaven To Heartache
TTITLE13=Let Me Go
TTITLE14=Meet Me in Texas
TTITLE15=When My Blue Moon Turns To Gold
TTITLE16=Back When Gas Was Thirty Cents A Gallon
TTITLE17=Us
TTITLE18=Old Worn Out Cowboys
TTITLE19=Deep Water
EXTD=YEAR: 2014
EXTT0=
EXTT1=
EXTT2=
EXTT3=
EXTT4=
EXTT5=
EXTT6=
EXTT7=
EXTT8=
EXTT9=
EXTT10=
EXTT11=
EXTT12=
EXTT13=
EXTT14=
EXTT15=
EXTT16=
EXTT17=
EXTT18=
EXTT19=
PLAYORDER=
